<mxfile host="app.diagrams.net" modified="2023-08-29T20:33:20.180Z" agent="Mozilla/5.0 (Macintosh; Intel Mac OS X 10_15_7) AppleWebKit/537.36 (KHTML, like Gecko) Chrome/116.0.0.0 Safari/537.36" version="21.7.0" etag="fgQaK74K3YjisbyTZZUl" type="github">
  <diagram name="Page-1" id="qUlldSyM8EHTiksyOQkF">
    <mxGraphModel>
      <root>
        <mxCell id="0" />
        <mxCell id="1" parent="0" />
      </root>
    </mxGraphModel>
  </diagram>
</mxfile>
